<?xml version="1.0" encoding="utf-8" standalone="no"?>
<!DOCTYPE svg PUBLIC "-//W3C//DTD SVG 1.1//EN"
  "http://www.w3.org/Graphics/SVG/1.1/DTD/svg11.dtd">
<svg xmlns:xlink="http://www.w3.org/1999/xlink" width="475.288866pt" height="721.452394pt" viewBox="0 0 475.288866 721.452394" xmlns="http://www.w3.org/2000/svg" version="1.1">
 <metadata>
  <rdf:RDF xmlns:dc="http://purl.org/dc/elements/1.1/" xmlns:cc="http://creativecommons.org/ns#" xmlns:rdf="http://www.w3.org/1999/02/22-rdf-syntax-ns#">
   <cc:Work>
    <dc:type rdf:resource="http://purl.org/dc/dcmitype/StillImage"/>
    <dc:date>2026-08-03T15:46:22.338454</dc:date>
    <dc:format>image/svg+xml</dc:format>
    <dc:creator>
     <cc:Agent>
      <dc:title>Matplotlib v3.10.0, https://matplotlib.org/</dc:title>
     </cc:Agent>
    </dc:creator>
   </cc:Work>
  </rdf:RDF>
 </metadata>
 <defs>
  <style type="text/css">*{stroke-linejoin: round; stroke-linecap: butt}</style>
 </defs>
 <g id="figure_1">
  <g id="patch_1">
   <path d="M 0 721.452394 
L 475.288866 721.452394 
L 475.288866 0 
L 0 0 
L 0 721.452394 
z
" style="fill: none"/>
  </g>
  <g id="axes_1">
   <g id="patch_2">
    <path d="M 97.369354 215.357836 
L 435.049354 215.357836 
L 435.049354 37.620693 
L 97.369354 37.620693 
L 97.369354 215.357836 
z
" style="fill: none"/>
   </g>
   <g id="patch_3">
    <path d="M 391.004137 215.357836 
L 408.063624 215.357836 
L 408.063624 37.620693 
L 391.004137 37.620693 
z
" clip-path="url(#peded866412)" style="fill: #fff3b0; opacity: 0.34"/>
   </g>
   <g id="patch_4">
    <path d="M 358.37805 215.357836 
L 391.004137 215.357836 
L 391.004137 37.620693 
L 358.37805 37.620693 
z
" clip-path="url(#peded866412)" style="fill: #ffd28a; opacity: 0.3"/>
   </g>
   <g id="patch_5">
    <path d="M 97.369354 215.357836 
L 358.37805 215.357836 
L 358.37805 37.620693 
L 97.369354 37.620693 
z
" clip-path="url(#peded866412)" style="fill: #e76f51; opacity: 0.26"/>
   </g>
   <g id="line2d_1">
    <path d="M 408.063624 215.357836 
L 408.063624 37.620693 
" clip-path="url(#peded866412)" style="fill: none; stroke-dasharray: 1.2,1.98; stroke-dashoffset: 0; stroke: #000000; stroke-opacity: 0.65; stroke-width: 1.2"/>
   </g>
   <g id="line2d_2">
    <path d="M 391.004137 215.357836 
L 391.004137 37.620693 
" clip-path="url(#peded866412)" style="fill: none; stroke-dasharray: 1.2,1.98; stroke-dashoffset: 0; stroke: #000000; stroke-opacity: 0.65; stroke-width: 1.2"/>
   </g>
   <g id="line2d_3">
    <path d="M 358.37805 215.357836 
L 358.37805 37.620693 
" clip-path="url(#peded866412)" style="fill: none; stroke-dasharray: 1.2,1.98; stroke-dashoffset: 0; stroke: #000000; stroke-opacity: 0.65; stroke-width: 1.2"/>
   </g>
   <g id="matplotlib.axis_1">
    <g id="xtick_1">
     <g id="line2d_4">
      <defs>
       <path id="m091a616750" d="M 0 0 
L 0 -3 
" style="stroke: #000000; stroke-width: 0.5"/>
      </defs>
      <g>
       <use xlink:href="#m091a616750" x="97.369354" y="215.357836" style="stroke: #000000; stroke-width: 0.5"/>
      </g>
     </g>
     <g id="line2d_5">
      <defs>
       <path id="m63d94b7586" d="M 0 0 
L 0 3 
" style="stroke: #000000; stroke-width: 0.5"/>
      </defs>
      <g>
       <use xlink:href="#m63d94b7586" x="97.369354" y="37.620693" style="stroke: #000000; stroke-width: 0.5"/>
      </g>
     </g>
    </g>
    <g id="xtick_2">
     <g id="line2d_6">
      <g>
       <use xlink:href="#m091a616750" x="162.621528" y="215.357836" style="stroke: #000000; stroke-width: 0.5"/>
      </g>
     </g>
     <g id="line2d_7">
      <g>
       <use xlink:href="#m63d94b7586" x="162.621528" y="37.620693" style="stroke: #000000; stroke-width: 0.5"/>
      </g>
     </g>
    </g>
    <g id="xtick_3">
     <g id="line2d_8">
      <g>
       <use xlink:href="#m091a616750" x="227.873702" y="215.357836" style="stroke: #000000; stroke-width: 0.5"/>
      </g>
     </g>
     <g id="line2d_9">
      <g>
       <use xlink:href="#m63d94b7586" x="227.873702" y="37.620693" style="stroke: #000000; stroke-width: 0.5"/>
      </g>
     </g>
    </g>
    <g id="xtick_4">
     <g id="line2d_10">
      <g>
       <use xlink:href="#m091a616750" x="293.125876" y="215.357836" style="stroke: #000000; stroke-width: 0.5"/>
      </g>
     </g>
     <g id="line2d_11">
      <g>
       <use xlink:href="#m63d94b7586" x="293.125876" y="37.620693" style="stroke: #000000; stroke-width: 0.5"/>
      </g>
     </g>
    </g>
    <g id="xtick_5">
     <g id="line2d_12">
      <g>
       <use xlink:href="#m091a616750" x="358.37805" y="215.357836" style="stroke: #000000; stroke-width: 0.5"/>
      </g>
     </g>
     <g id="line2d_13">
      <g>
       <use xlink:href="#m63d94b7586" x="358.37805" y="37.620693" style="stroke: #000000; stroke-width: 0.5"/>
      </g>
     </g>
    </g>
    <g id="xtick_6">
     <g id="line2d_14">
      <g>
       <use xlink:href="#m091a616750" x="423.630224" y="215.357836" style="stroke: #000000; stroke-width: 0.5"/>
      </g>
     </g>
     <g id="line2d_15">
      <g>
       <use xlink:href="#m63d94b7586" x="423.630224" y="37.620693" style="stroke: #000000; stroke-width: 0.5"/>
      </g>
     </g>
    </g>
   </g>
   <g id="matplotlib.axis_2">
    <g id="ytick_1">
     <g id="line2d_16">
      <defs>
       <path id="me68319a96e" d="M 0 0 
L 3 0 
" style="stroke: #000000; stroke-width: 0.5"/>
      </defs>
      <g>
       <use xlink:href="#me68319a96e" x="97.369354" y="190.270536" style="stroke: #000000; stroke-width: 0.5"/>
      </g>
     </g>
     <g id="line2d_17">
      <defs>
       <path id="mb01433688a" d="M 0 0 
L -3 0 
" style="stroke: #000000; stroke-width: 0.5"/>
      </defs>
      <g>
       <use xlink:href="#mb01433688a" x="435.049354" y="190.270536" style="stroke: #000000; stroke-width: 0.5"/>
      </g>
     </g>
     <g id="text_1">
      <!-- Hom-HI -->
      <g transform="translate(22.706132 197.880883) scale(0.22 -0.22)">
       <defs>
        <path id="CMR17-48" d="M 3590 3905 
C 3590 4192 3661 4192 4102 4192 
L 4102 4352 
C 3917 4352 3578 4352 3379 4352 
C 3181 4352 2842 4352 2656 4352 
L 2656 4192 
C 3098 4192 3168 4192 3168 3904 
L 3168 2341 
L 1261 2341 
L 1261 3904 
C 1261 4192 1331 4192 1773 4192 
L 1773 4352 
C 1587 4352 1248 4352 1050 4352 
C 851 4352 512 4352 326 4352 
L 326 4192 
C 768 4192 838 4192 838 3905 
L 838 447 
C 838 160 768 160 326 160 
L 326 0 
C 512 0 851 0 1050 0 
C 1248 0 1587 0 1773 0 
L 1773 160 
C 1331 160 1261 160 1261 446 
L 1261 2176 
L 3168 2176 
L 3168 446 
C 3168 160 3098 160 2656 160 
L 2656 0 
C 2842 0 3181 0 3379 0 
C 3578 0 3917 0 4102 0 
L 4102 160 
C 3661 160 3590 160 3590 447 
L 3590 3905 
z
" transform="scale(0.015625)"/>
        <path id="CMR17-6f" d="M 2758 1356 
C 2758 2176 2163 2816 1466 2816 
C 768 2816 173 2176 173 1356 
C 173 551 768 -64 1466 -64 
C 2163 -64 2758 551 2758 1356 
z
M 1466 51 
C 1165 51 909 230 762 480 
C 602 767 582 1126 582 1408 
C 582 1677 595 2010 762 2298 
C 890 2509 1139 2714 1466 2714 
C 1754 2714 1997 2554 2150 2330 
C 2349 2029 2349 1607 2349 1408 
C 2349 1158 2336 775 2163 467 
C 1984 173 1709 51 1466 51 
z
" transform="scale(0.015625)"/>
        <path id="CMR17-6d" d="M 4326 1933 
C 4326 2252 4269 2790 3507 2790 
C 3072 2790 2771 2496 2656 2151 
L 2650 2151 
C 2573 2676 2195 2790 1837 2790 
C 1331 2790 1069 2400 973 2144 
L 966 2144 
L 966 2790 
L 211 2720 
L 211 2554 
C 589 2554 646 2515 646 2208 
L 646 428 
C 646 184 621 153 211 153 
L 211 -13 
C 365 0 646 0 813 0 
C 979 0 1267 0 1421 -13 
L 1421 153 
C 1011 153 986 178 986 428 
L 986 1658 
C 986 2247 1344 2688 1792 2688 
C 2266 2688 2317 2266 2317 1958 
L 2317 428 
C 2317 184 2291 153 1882 153 
L 1882 -13 
C 2035 0 2317 0 2483 0 
C 2650 0 2938 0 3091 -13 
L 3091 153 
C 2682 153 2656 178 2656 428 
L 2656 1658 
C 2656 2247 3014 2688 3462 2688 
C 3936 2688 3987 2266 3987 1958 
L 3987 428 
C 3987 184 3962 153 3552 153 
L 3552 -13 
C 3706 0 3987 0 4154 0 
C 4320 0 4608 0 4762 -13 
L 4762 153 
C 4352 153 4326 178 4326 428 
L 4326 1933 
z
" transform="scale(0.015625)"/>
        <path id="CMR17-2d" d="M 1632 1216 
L 1632 1496 
L 26 1496 
L 26 1216 
L 1632 1216 
z
" transform="scale(0.015625)"/>
        <path id="CMR17-49" d="M 1261 3905 
C 1261 4192 1338 4192 1798 4192 
L 1798 4352 
C 1594 4352 1267 4352 1050 4352 
C 832 4352 506 4352 301 4352 
L 301 4192 
C 762 4192 838 4192 838 3905 
L 838 447 
C 838 160 762 160 301 160 
L 301 0 
C 506 0 832 0 1050 0 
C 1267 0 1594 0 1798 0 
L 1798 160 
C 1338 160 1261 160 1261 447 
L 1261 3905 
z
" transform="scale(0.015625)"/>
       </defs>
       <use xlink:href="#CMR17-48" transform="scale(0.996264)"/>
       <use xlink:href="#CMR17-6f" transform="translate(69.07243 0) scale(0.996264)"/>
       <use xlink:href="#CMR17-6d" transform="translate(114.762907 0) scale(0.996264)"/>
       <use xlink:href="#CMR17-2d" transform="translate(191.682497 0) scale(0.996264)"/>
       <use xlink:href="#CMR17-48" transform="translate(221.758463 0) scale(0.996264)"/>
       <use xlink:href="#CMR17-49" transform="translate(290.830893 0) scale(0.996264)"/>
      </g>
     </g>
    </g>
    <g id="ytick_2">
     <g id="line2d_18">
      <g>
       <use xlink:href="#me68319a96e" x="97.369354" y="147.749689" style="stroke: #000000; stroke-width: 0.5"/>
      </g>
     </g>
     <g id="line2d_19">
      <g>
       <use xlink:href="#mb01433688a" x="435.049354" y="147.749689" style="stroke: #000000; stroke-width: 0.5"/>
      </g>
     </g>
     <g id="text_2">
      <!-- Het-HI -->
      <g transform="translate(33.01174 155.360035) scale(0.22 -0.22)">
       <defs>
        <path id="CMR17-65" d="M 2438 1472 
C 2464 1498 2464 1511 2464 1576 
C 2464 2238 2118 2816 1389 2816 
C 710 2816 173 2169 173 1383 
C 173 551 781 -64 1459 -64 
C 2176 -64 2458 607 2458 740 
C 2458 784 2419 784 2406 784 
C 2362 784 2355 771 2330 696 
C 2189 265 1837 51 1504 51 
C 1229 51 954 203 781 480 
C 582 803 582 1176 582 1472 
L 2438 1472 
z
M 589 1568 
C 634 2505 1126 2714 1382 2714 
C 1818 2714 2112 2297 2118 1568 
L 589 1568 
z
" transform="scale(0.015625)"/>
        <path id="CMR17-74" d="M 966 2560 
L 1862 2560 
L 1862 2725 
L 966 2725 
L 966 3904 
L 851 3904 
C 838 3245 614 2668 70 2668 
L 70 2560 
L 627 2560 
L 627 771 
C 627 650 627 -64 1370 -64 
C 1747 -64 1965 306 1965 777 
L 1965 1140 
L 1850 1140 
L 1850 783 
C 1850 344 1677 51 1408 51 
C 1222 51 966 178 966 758 
L 966 2560 
z
" transform="scale(0.015625)"/>
       </defs>
       <use xlink:href="#CMR17-48" transform="scale(0.996264)"/>
       <use xlink:href="#CMR17-65" transform="translate(69.07243 0) scale(0.996264)"/>
       <use xlink:href="#CMR17-74" transform="translate(109.55809 0) scale(0.996264)"/>
       <use xlink:href="#CMR17-2d" transform="translate(144.838858 0) scale(0.996264)"/>
       <use xlink:href="#CMR17-48" transform="translate(174.914824 0) scale(0.996264)"/>
       <use xlink:href="#CMR17-49" transform="translate(243.987254 0) scale(0.996264)"/>
      </g>
     </g>
    </g>
    <g id="ytick_3">
     <g id="line2d_20">
      <g>
       <use xlink:href="#me68319a96e" x="97.369354" y="105.228841" style="stroke: #000000; stroke-width: 0.5"/>
      </g>
     </g>
     <g id="line2d_21">
      <g>
       <use xlink:href="#mb01433688a" x="435.049354" y="105.228841" style="stroke: #000000; stroke-width: 0.5"/>
      </g>
     </g>
     <g id="text_3">
      <!-- Hom-HD -->
      <g transform="translate(14.4 112.839188) scale(0.22 -0.22)">
       <defs>
        <path id="CMR17-44" d="M 333 4352 
L 333 4186 
C 774 4186 845 4186 845 3900 
L 845 452 
C 845 166 774 166 333 166 
L 333 0 
L 2368 0 
C 3398 0 4224 943 4224 2141 
C 4224 3346 3411 4352 2368 4352 
L 333 4352 
z
M 1523 166 
C 1267 166 1254 197 1254 414 
L 1254 3938 
C 1254 4155 1267 4186 1523 4186 
L 2240 4186 
C 2771 4186 3750 3874 3750 2141 
C 3750 1242 3488 879 3366 707 
C 3213 510 2848 166 2240 166 
L 1523 166 
z
" transform="scale(0.015625)"/>
       </defs>
       <use xlink:href="#CMR17-48" transform="scale(0.996264)"/>
       <use xlink:href="#CMR17-6f" transform="translate(69.07243 0) scale(0.996264)"/>
       <use xlink:href="#CMR17-6d" transform="translate(114.762907 0) scale(0.996264)"/>
       <use xlink:href="#CMR17-2d" transform="translate(191.682497 0) scale(0.996264)"/>
       <use xlink:href="#CMR17-48" transform="translate(221.758463 0) scale(0.996264)"/>
       <use xlink:href="#CMR17-44" transform="translate(290.830893 0) scale(0.996264)"/>
      </g>
     </g>
    </g>
    <g id="ytick_4">
     <g id="line2d_22">
      <g>
       <use xlink:href="#me68319a96e" x="97.369354" y="62.707993" style="stroke: #000000; stroke-width: 0.5"/>
      </g>
     </g>
     <g id="line2d_23">
      <g>
       <use xlink:href="#mb01433688a" x="435.049354" y="62.707993" style="stroke: #000000; stroke-width: 0.5"/>
      </g>
     </g>
     <g id="text_4">
      <!-- Het-HD -->
      <g transform="translate(24.705608 70.31834) scale(0.22 -0.22)">
       <use xlink:href="#CMR17-48" transform="scale(0.996264)"/>
       <use xlink:href="#CMR17-65" transform="translate(69.07243 0) scale(0.996264)"/>
       <use xlink:href="#CMR17-74" transform="translate(109.55809 0) scale(0.996264)"/>
       <use xlink:href="#CMR17-2d" transform="translate(144.838858 0) scale(0.996264)"/>
       <use xlink:href="#CMR17-48" transform="translate(174.914824 0) scale(0.996264)"/>
       <use xlink:href="#CMR17-44" transform="translate(243.987254 0) scale(0.996264)"/>
      </g>
     </g>
    </g>
   </g>
   <g id="patch_6">
    <path d="M 423.630224 207.278875 
L 97.369354 207.278875 
L 97.369354 173.262197 
L 423.630224 173.262197 
z
" clip-path="url(#peded866412)" style="fill: #b1ceb5; opacity: 0.9; stroke: #000000; stroke-width: 1.5; stroke-linejoin: miter"/>
   </g>
   <g id="patch_7">
    <path d="M 423.630224 164.758028 
L 97.369354 164.758028 
L 97.369354 130.74135 
L 423.630224 130.74135 
z
" clip-path="url(#peded866412)" style="fill: #5494a1; opacity: 0.9; stroke: #000000; stroke-width: 1.5; stroke-linejoin: miter"/>
   </g>
   <g id="patch_8">
    <path d="M 423.630224 122.23718 
L 114.018249 122.23718 
L 114.018249 88.220502 
L 423.630224 88.220502 
z
" clip-path="url(#peded866412)" style="fill: #7db2ac; opacity: 0.9; stroke: #000000; stroke-width: 1.5; stroke-linejoin: miter"/>
   </g>
   <g id="patch_9">
    <path d="M 423.630224 79.716332 
L 423.630224 79.716332 
L 423.630224 45.699654 
L 423.630224 45.699654 
z
" clip-path="url(#peded866412)" style="opacity: 0.9; stroke: #000000; stroke-width: 1.5; stroke-linejoin: miter"/>
   </g>
   <g id="patch_10">
    <path d="M 97.369354 215.357836 
L 97.369354 37.620693 
" style="fill: none; stroke: #000000; stroke-width: 1.6; stroke-linejoin: miter; stroke-linecap: square"/>
   </g>
   <g id="patch_11">
    <path d="M 435.049354 215.357836 
L 435.049354 37.620693 
" style="fill: none; stroke: #000000; stroke-width: 1.6; stroke-linejoin: miter; stroke-linecap: square"/>
   </g>
   <g id="patch_12">
    <path d="M 97.369354 215.357836 
L 435.049354 215.357836 
" style="fill: none; stroke: #000000; stroke-width: 1.6; stroke-linejoin: miter; stroke-linecap: square"/>
   </g>
   <g id="patch_13">
    <path d="M 97.369354 37.620693 
L 435.049354 37.620693 
" style="fill: none; stroke: #000000; stroke-width: 1.6; stroke-linejoin: miter; stroke-linecap: square"/>
   </g>
   <g id="line2d_24">
    <path d="M 423.630224 215.357836 
L 423.630224 37.620693 
" clip-path="url(#peded866412)" style="fill: none; stroke: #000000; stroke-width: 1.8; stroke-linecap: square"/>
   </g>
   <g id="text_5">
    <!-- No treatment -->
    <g transform="translate(207.0474 29.620693) scale(0.22 -0.22)">
     <defs>
      <path id="CMR17-4e" d="M 1312 4250 
C 1267 4320 1261 4320 1139 4320 
L 326 4320 
L 326 4160 
L 448 4160 
C 704 4160 819 4129 838 4122 
L 838 610 
C 838 451 838 153 326 153 
L 326 -13 
C 474 0 742 0 902 0 
C 1062 0 1331 0 1478 -13 
L 1478 153 
C 966 153 966 451 966 610 
L 966 4033 
C 1011 3995 1011 3982 1056 3919 
L 3430 76 
C 3475 0 3494 0 3526 0 
C 3590 0 3590 19 3590 139 
L 3590 3705 
C 3590 3863 3590 4160 4102 4160 
L 4102 4326 
C 3955 4320 3686 4320 3526 4320 
C 3366 4320 3098 4320 2950 4326 
L 2950 4160 
C 3462 4160 3462 3862 3462 3703 
L 3462 763 
L 1312 4250 
z
" transform="scale(0.015625)"/>
      <path id="CMR17-72" d="M 960 1497 
C 960 2112 1222 2688 1702 2688 
C 1747 2688 1792 2682 1837 2662 
C 1837 2662 1696 2617 1696 2452 
C 1696 2298 1818 2234 1914 2234 
C 1990 2234 2131 2279 2131 2458 
C 2131 2663 1926 2790 1709 2790 
C 1222 2790 1011 2317 947 2093 
L 941 2093 
L 941 2790 
L 198 2720 
L 198 2554 
C 576 2554 634 2515 634 2208 
L 634 428 
C 634 184 608 153 198 153 
L 198 -13 
C 352 0 646 0 813 0 
C 998 0 1325 0 1498 -13 
L 1498 153 
C 1037 153 960 153 960 440 
L 960 1497 
z
" transform="scale(0.015625)"/>
      <path id="CMR17-61" d="M 2304 1653 
C 2304 2072 2304 2294 2035 2543 
C 1798 2752 1523 2816 1306 2816 
C 800 2816 435 2407 435 1971 
C 435 1728 627 1728 666 1728 
C 749 1728 896 1778 896 1954 
C 896 2112 774 2181 666 2181 
C 640 2181 608 2174 589 2168 
C 723 2592 1069 2714 1293 2714 
C 1613 2714 1965 2429 1965 1885 
L 1965 1600 
C 1587 1600 1133 1549 774 1357 
C 371 1133 256 813 256 570 
C 256 77 832 -64 1171 -64 
C 1523 -64 1850 139 1990 511 
C 2003 233 2182 -18 2464 -18 
C 2598 -18 2938 70 2938 567 
L 2938 920 
L 2822 920 
L 2822 562 
C 2822 178 2650 128 2566 128 
C 2304 128 2304 458 2304 738 
L 2304 1653 
z
M 1965 870 
C 1965 317 1568 38 1216 38 
C 896 38 646 275 646 570 
C 646 761 730 1100 1101 1305 
C 1408 1478 1760 1504 1965 1504 
L 1965 870 
z
" transform="scale(0.015625)"/>
      <path id="CMR17-6e" d="M 2656 1933 
C 2656 2259 2592 2790 1837 2790 
C 1331 2790 1069 2400 973 2144 
L 966 2144 
L 966 2790 
L 211 2720 
L 211 2554 
C 589 2554 646 2515 646 2208 
L 646 428 
C 646 184 621 153 211 153 
L 211 -13 
C 365 0 646 0 813 0 
C 979 0 1267 0 1421 -13 
L 1421 153 
C 1011 153 986 178 986 428 
L 986 1658 
C 986 2247 1344 2688 1792 2688 
C 2266 2688 2317 2266 2317 1958 
L 2317 428 
C 2317 184 2291 153 1882 153 
L 1882 -13 
C 2035 0 2317 0 2483 0 
C 2650 0 2938 0 3091 -13 
L 3091 153 
C 2682 153 2656 178 2656 428 
L 2656 1933 
z
" transform="scale(0.015625)"/>
     </defs>
     <use xlink:href="#CMR17-4e" transform="scale(0.996264)"/>
     <use xlink:href="#CMR17-6f" transform="translate(69.07243 0) scale(0.996264)"/>
     <use xlink:href="#CMR17-74" transform="translate(144.838873 0) scale(0.996264)"/>
     <use xlink:href="#CMR17-72" transform="translate(180.119641 0) scale(0.996264)"/>
     <use xlink:href="#CMR17-65" transform="translate(215.400409 0) scale(0.996264)"/>
     <use xlink:href="#CMR17-61" transform="translate(255.886069 0) scale(0.996264)"/>
     <use xlink:href="#CMR17-74" transform="translate(301.576546 0) scale(0.996264)"/>
     <use xlink:href="#CMR17-6d" transform="translate(336.857314 0) scale(0.996264)"/>
     <use xlink:href="#CMR17-65" transform="translate(413.776904 0) scale(0.996264)"/>
     <use xlink:href="#CMR17-6e" transform="translate(454.262565 0) scale(0.996264)"/>
     <use xlink:href="#CMR17-74" transform="translate(502.55548 0) scale(0.996264)"/>
    </g>
   </g>
   <g id="text_6">
    <!-- // -->
    <g transform="translate(103.24205 196.24736) scale(0.24 -0.24)">
     <defs>
      <path id="CMR17-2f" d="M 2605 4545 
C 2637 4627 2637 4640 2637 4653 
C 2637 4729 2579 4768 2528 4768 
C 2451 4768 2426 4717 2400 4640 
L 326 -1377 
C 294 -1460 294 -1473 294 -1486 
C 294 -1562 352 -1600 403 -1600 
C 480 -1600 506 -1549 531 -1473 
L 2605 4545 
z
" transform="scale(0.015625)"/>
     </defs>
     <use xlink:href="#CMR17-2f" transform="scale(0.996264)"/>
     <use xlink:href="#CMR17-2f" transform="translate(45.690477 0) scale(0.996264)"/>
    </g>
   </g>
   <g id="text_7">
    <!-- -93.06 -->
    <g transform="translate(117.597528 195.749289) scale(0.22 -0.22)">
     <defs>
      <path id="CMR17-39" d="M 2253 1864 
C 2253 464 1670 31 1190 31 
C 1043 31 685 31 538 294 
C 704 268 826 357 826 518 
C 826 692 685 749 595 749 
C 538 749 365 723 365 506 
C 365 71 742 -128 1203 -128 
C 1939 -128 2688 674 2688 2073 
C 2688 3817 1971 4179 1485 4179 
C 851 4179 243 3628 243 2778 
C 243 1991 762 1408 1414 1408 
C 1952 1408 2189 1903 2253 2112 
L 2253 1864 
z
M 1427 1510 
C 1254 1510 1011 1542 813 1922 
C 678 2169 678 2461 678 2771 
C 678 3146 678 3405 858 3684 
C 947 3817 1114 4032 1485 4032 
C 2240 4032 2240 2885 2240 2632 
C 2240 2182 2035 1510 1427 1510 
z
" transform="scale(0.015625)"/>
      <path id="CMR17-33" d="M 1414 2157 
C 1984 2157 2234 1662 2234 1090 
C 2234 320 1824 25 1453 25 
C 1114 25 563 194 390 693 
C 422 680 454 680 486 680 
C 640 680 755 782 755 948 
C 755 1133 614 1216 486 1216 
C 378 1216 211 1165 211 926 
C 211 335 787 -128 1466 -128 
C 2176 -128 2720 430 2720 1085 
C 2720 1707 2208 2157 1600 2227 
C 2086 2328 2554 2756 2554 3329 
C 2554 3820 2048 4179 1472 4179 
C 890 4179 378 3829 378 3329 
C 378 3110 544 3072 627 3072 
C 762 3072 877 3155 877 3321 
C 877 3486 762 3569 627 3569 
C 602 3569 570 3569 544 3557 
C 730 3959 1235 4032 1459 4032 
C 1683 4032 2106 3925 2106 3320 
C 2106 3143 2080 2828 1862 2550 
C 1670 2304 1453 2304 1242 2284 
C 1210 2284 1062 2269 1037 2269 
C 992 2263 966 2257 966 2208 
C 966 2163 973 2157 1101 2157 
L 1414 2157 
z
" transform="scale(0.015625)"/>
      <path id="CMR17-2e" d="M 1062 261 
C 1062 420 934 522 800 522 
C 672 522 538 420 538 261 
C 538 102 666 0 800 0 
C 928 0 1062 102 1062 261 
z
" transform="scale(0.015625)"/>
      <path id="CMR17-30" d="M 2688 2025 
C 2688 2416 2682 3080 2413 3591 
C 2176 4039 1798 4198 1466 4198 
C 1158 4198 768 4058 525 3597 
C 269 3118 243 2524 243 2025 
C 243 1661 250 1106 448 619 
C 723 -39 1216 -128 1466 -128 
C 1760 -128 2208 -7 2470 600 
C 2662 1042 2688 1559 2688 2025 
z
M 1466 -26 
C 1056 -26 813 325 723 812 
C 653 1188 653 1738 653 2096 
C 653 2588 653 2997 736 3387 
C 858 3929 1216 4096 1466 4096 
C 1728 4096 2067 3923 2189 3400 
C 2272 3036 2278 2607 2278 2096 
C 2278 1680 2278 1169 2202 792 
C 2067 95 1690 -26 1466 -26 
z
" transform="scale(0.015625)"/>
      <path id="CMR17-36" d="M 678 2176 
C 678 3690 1395 4032 1811 4032 
C 1946 4032 2272 4009 2400 3776 
C 2298 3776 2106 3776 2106 3553 
C 2106 3381 2246 3323 2336 3323 
C 2394 3323 2566 3348 2566 3560 
C 2566 3954 2246 4179 1805 4179 
C 1043 4179 243 3390 243 1984 
C 243 253 966 -128 1478 -128 
C 2099 -128 2688 427 2688 1283 
C 2688 2081 2170 2662 1517 2662 
C 1126 2662 838 2407 678 1960 
L 678 2176 
z
M 1478 25 
C 691 25 691 1200 691 1436 
C 691 1896 909 2560 1504 2560 
C 1613 2560 1926 2560 2138 2120 
C 2253 1870 2253 1609 2253 1289 
C 2253 944 2253 690 2118 434 
C 1978 171 1773 25 1478 25 
z
" transform="scale(0.015625)"/>
     </defs>
     <use xlink:href="#CMR17-2d" transform="scale(0.996264)"/>
     <use xlink:href="#CMR17-39" transform="translate(30.075966 0) scale(0.996264)"/>
     <use xlink:href="#CMR17-33" transform="translate(75.766443 0) scale(0.996264)"/>
     <use xlink:href="#CMR17-2e" transform="translate(121.456921 0) scale(0.996264)"/>
     <use xlink:href="#CMR17-30" transform="translate(146.327979 0) scale(0.996264)"/>
     <use xlink:href="#CMR17-36" transform="translate(192.018456 0) scale(0.996264)"/>
    </g>
   </g>
   <g id="text_8">
    <!-- // -->
    <g transform="translate(103.24205 153.726513) scale(0.24 -0.24)">
     <use xlink:href="#CMR17-2f" transform="scale(0.996264)"/>
     <use xlink:href="#CMR17-2f" transform="translate(45.690477 0) scale(0.996264)"/>
    </g>
   </g>
   <g id="text_9">
    <!-- -15.79 -->
    <g transform="translate(117.597528 153.228441) scale(0.22 -0.22)">
     <defs>
      <path id="CMR17-31" d="M 1702 4058 
C 1702 4192 1696 4192 1606 4192 
C 1357 3916 979 3827 621 3827 
C 602 3827 570 3827 563 3808 
C 557 3795 557 3782 557 3648 
C 755 3648 1088 3686 1344 3839 
L 1344 461 
C 1344 236 1331 160 781 160 
L 589 160 
L 589 0 
C 896 0 1216 0 1523 0 
C 1830 0 2150 0 2458 0 
L 2458 160 
L 2266 160 
C 1715 160 1702 230 1702 458 
L 1702 4058 
z
" transform="scale(0.015625)"/>
      <path id="CMR17-35" d="M 730 3692 
C 794 3666 1056 3584 1325 3584 
C 1920 3584 2246 3911 2432 4100 
C 2432 4157 2432 4192 2394 4192 
C 2387 4192 2374 4192 2323 4163 
C 2099 4058 1837 3973 1517 3973 
C 1325 3973 1037 3999 723 4139 
C 653 4171 640 4171 634 4171 
C 602 4171 595 4164 595 4037 
L 595 2203 
C 595 2089 595 2057 659 2057 
C 691 2057 704 2070 736 2114 
C 941 2401 1222 2522 1542 2522 
C 1766 2522 2246 2382 2246 1289 
C 2246 1085 2246 715 2054 421 
C 1894 159 1645 25 1370 25 
C 947 25 518 320 403 814 
C 429 807 480 795 506 795 
C 589 795 749 840 749 1038 
C 749 1210 627 1280 506 1280 
C 358 1280 262 1190 262 1011 
C 262 454 704 -128 1382 -128 
C 2042 -128 2669 440 2669 1264 
C 2669 2030 2170 2624 1549 2624 
C 1222 2624 947 2503 730 2274 
L 730 3692 
z
" transform="scale(0.015625)"/>
      <path id="CMR17-37" d="M 2886 3941 
L 2886 4081 
L 1382 4081 
C 634 4081 621 4165 595 4288 
L 480 4288 
L 294 3094 
L 410 3094 
C 429 3215 474 3540 550 3661 
C 589 3712 1062 3712 1171 3712 
L 2579 3712 
L 1869 2661 
C 1395 1954 1069 999 1069 165 
C 1069 89 1069 -128 1299 -128 
C 1530 -128 1530 89 1530 171 
L 1530 465 
C 1530 1508 1709 2196 2003 2636 
L 2886 3941 
z
" transform="scale(0.015625)"/>
     </defs>
     <use xlink:href="#CMR17-2d" transform="scale(0.996264)"/>
     <use xlink:href="#CMR17-31" transform="translate(30.075966 0) scale(0.996264)"/>
     <use xlink:href="#CMR17-35" transform="translate(75.766443 0) scale(0.996264)"/>
     <use xlink:href="#CMR17-2e" transform="translate(121.456921 0) scale(0.996264)"/>
     <use xlink:href="#CMR17-37" transform="translate(146.327979 0) scale(0.996264)"/>
     <use xlink:href="#CMR17-39" transform="translate(192.018456 0) scale(0.996264)"/>
    </g>
   </g>
   <g id="text_10">
    <!-- -9.49 -->
    <g transform="translate(117.933379 110.707594) scale(0.22 -0.22)">
     <defs>
      <path id="CMR17-34" d="M 2150 4122 
C 2150 4256 2144 4256 2029 4256 
L 128 1254 
L 128 1088 
L 1779 1088 
L 1779 457 
C 1779 224 1766 160 1318 160 
L 1197 160 
L 1197 0 
C 1402 0 1747 0 1965 0 
C 2182 0 2528 0 2733 0 
L 2733 160 
L 2611 160 
C 2163 160 2150 224 2150 457 
L 2150 1088 
L 2803 1088 
L 2803 1254 
L 2150 1254 
L 2150 4122 
z
M 1798 3703 
L 1798 1254 
L 256 1254 
L 1798 3703 
z
" transform="scale(0.015625)"/>
     </defs>
     <use xlink:href="#CMR17-2d" transform="scale(0.996264)"/>
     <use xlink:href="#CMR17-39" transform="translate(30.075966 0) scale(0.996264)"/>
     <use xlink:href="#CMR17-2e" transform="translate(75.766443 0) scale(0.996264)"/>
     <use xlink:href="#CMR17-34" transform="translate(100.637502 0) scale(0.996264)"/>
     <use xlink:href="#CMR17-39" transform="translate(146.327979 0) scale(0.996264)"/>
    </g>
   </g>
   <g id="text_11">
    <!-- 0.00 -->
    <g transform="translate(425.261528 68.186746) scale(0.22 -0.22)">
     <use xlink:href="#CMR17-30" transform="scale(0.996264)"/>
     <use xlink:href="#CMR17-2e" transform="translate(45.690477 0) scale(0.996264)"/>
     <use xlink:href="#CMR17-30" transform="translate(70.561536 0) scale(0.996264)"/>
     <use xlink:href="#CMR17-30" transform="translate(116.252013 0) scale(0.996264)"/>
    </g>
   </g>
  </g>
  <g id="axes_2">
   <g id="patch_14">
    <path d="M 97.369354 437.529265 
L 435.049354 437.529265 
L 435.049354 259.792122 
L 97.369354 259.792122 
L 97.369354 437.529265 
z
" style="fill: none"/>
   </g>
   <g id="patch_15">
    <path d="M 391.004137 437.529265 
L 408.063624 437.529265 
L 408.063624 259.792122 
L 391.004137 259.792122 
z
" clip-path="url(#paca9afa5fa)" style="fill: #fff3b0; opacity: 0.34"/>
   </g>
   <g id="patch_16">
    <path d="M 358.37805 437.529265 
L 391.004137 437.529265 
L 391.004137 259.792122 
L 358.37805 259.792122 
z
" clip-path="url(#paca9afa5fa)" style="fill: #ffd28a; opacity: 0.3"/>
   </g>
   <g id="patch_17">
    <path d="M 97.369354 437.529265 
L 358.37805 437.529265 
L 358.37805 259.792122 
L 97.369354 259.792122 
z
" clip-path="url(#paca9afa5fa)" style="fill: #e76f51; opacity: 0.26"/>
   </g>
   <g id="line2d_25">
    <path d="M 408.063624 437.529265 
L 408.063624 259.792122 
" clip-path="url(#paca9afa5fa)" style="fill: none; stroke-dasharray: 1.2,1.98; stroke-dashoffset: 0; stroke: #000000; stroke-opacity: 0.65; stroke-width: 1.2"/>
   </g>
   <g id="line2d_26">
    <path d="M 391.004137 437.529265 
L 391.004137 259.792122 
" clip-path="url(#paca9afa5fa)" style="fill: none; stroke-dasharray: 1.2,1.98; stroke-dashoffset: 0; stroke: #000000; stroke-opacity: 0.65; stroke-width: 1.2"/>
   </g>
   <g id="line2d_27">
    <path d="M 358.37805 437.529265 
L 358.37805 259.792122 
" clip-path="url(#paca9afa5fa)" style="fill: none; stroke-dasharray: 1.2,1.98; stroke-dashoffset: 0; stroke: #000000; stroke-opacity: 0.65; stroke-width: 1.2"/>
   </g>
   <g id="matplotlib.axis_3">
    <g id="xtick_7">
     <g id="line2d_28">
      <g>
       <use xlink:href="#m091a616750" x="97.369354" y="437.529265" style="stroke: #000000; stroke-width: 0.5"/>
      </g>
     </g>
     <g id="line2d_29">
      <g>
       <use xlink:href="#m63d94b7586" x="97.369354" y="259.792122" style="stroke: #000000; stroke-width: 0.5"/>
      </g>
     </g>
    </g>
    <g id="xtick_8">
     <g id="line2d_30">
      <g>
       <use xlink:href="#m091a616750" x="162.621528" y="437.529265" style="stroke: #000000; stroke-width: 0.5"/>
      </g>
     </g>
     <g id="line2d_31">
      <g>
       <use xlink:href="#m63d94b7586" x="162.621528" y="259.792122" style="stroke: #000000; stroke-width: 0.5"/>
      </g>
     </g>
    </g>
    <g id="xtick_9">
     <g id="line2d_32">
      <g>
       <use xlink:href="#m091a616750" x="227.873702" y="437.529265" style="stroke: #000000; stroke-width: 0.5"/>
      </g>
     </g>
     <g id="line2d_33">
      <g>
       <use xlink:href="#m63d94b7586" x="227.873702" y="259.792122" style="stroke: #000000; stroke-width: 0.5"/>
      </g>
     </g>
    </g>
    <g id="xtick_10">
     <g id="line2d_34">
      <g>
       <use xlink:href="#m091a616750" x="293.125876" y="437.529265" style="stroke: #000000; stroke-width: 0.5"/>
      </g>
     </g>
     <g id="line2d_35">
      <g>
       <use xlink:href="#m63d94b7586" x="293.125876" y="259.792122" style="stroke: #000000; stroke-width: 0.5"/>
      </g>
     </g>
    </g>
    <g id="xtick_11">
     <g id="line2d_36">
      <g>
       <use xlink:href="#m091a616750" x="358.37805" y="437.529265" style="stroke: #000000; stroke-width: 0.5"/>
      </g>
     </g>
     <g id="line2d_37">
      <g>
       <use xlink:href="#m63d94b7586" x="358.37805" y="259.792122" style="stroke: #000000; stroke-width: 0.5"/>
      </g>
     </g>
    </g>
    <g id="xtick_12">
     <g id="line2d_38">
      <g>
       <use xlink:href="#m091a616750" x="423.630224" y="437.529265" style="stroke: #000000; stroke-width: 0.5"/>
      </g>
     </g>
     <g id="line2d_39">
      <g>
       <use xlink:href="#m63d94b7586" x="423.630224" y="259.792122" style="stroke: #000000; stroke-width: 0.5"/>
      </g>
     </g>
    </g>
   </g>
   <g id="matplotlib.axis_4">
    <g id="ytick_5">
     <g id="line2d_40">
      <g>
       <use xlink:href="#me68319a96e" x="97.369354" y="412.441965" style="stroke: #000000; stroke-width: 0.5"/>
      </g>
     </g>
     <g id="line2d_41">
      <g>
       <use xlink:href="#mb01433688a" x="435.049354" y="412.441965" style="stroke: #000000; stroke-width: 0.5"/>
      </g>
     </g>
     <g id="text_12">
      <!-- Hom-HI -->
      <g transform="translate(22.706132 420.052311) scale(0.22 -0.22)">
       <use xlink:href="#CMR17-48" transform="scale(0.996264)"/>
       <use xlink:href="#CMR17-6f" transform="translate(69.07243 0) scale(0.996264)"/>
       <use xlink:href="#CMR17-6d" transform="translate(114.762907 0) scale(0.996264)"/>
       <use xlink:href="#CMR17-2d" transform="translate(191.682497 0) scale(0.996264)"/>
       <use xlink:href="#CMR17-48" transform="translate(221.758463 0) scale(0.996264)"/>
       <use xlink:href="#CMR17-49" transform="translate(290.830893 0) scale(0.996264)"/>
      </g>
     </g>
    </g>
    <g id="ytick_6">
     <g id="line2d_42">
      <g>
       <use xlink:href="#me68319a96e" x="97.369354" y="369.921117" style="stroke: #000000; stroke-width: 0.5"/>
      </g>
     </g>
     <g id="line2d_43">
      <g>
       <use xlink:href="#mb01433688a" x="435.049354" y="369.921117" style="stroke: #000000; stroke-width: 0.5"/>
      </g>
     </g>
     <g id="text_13">
      <!-- Het-HI -->
      <g transform="translate(33.01174 377.531464) scale(0.22 -0.22)">
       <use xlink:href="#CMR17-48" transform="scale(0.996264)"/>
       <use xlink:href="#CMR17-65" transform="translate(69.07243 0) scale(0.996264)"/>
       <use xlink:href="#CMR17-74" transform="translate(109.55809 0) scale(0.996264)"/>
       <use xlink:href="#CMR17-2d" transform="translate(144.838858 0) scale(0.996264)"/>
       <use xlink:href="#CMR17-48" transform="translate(174.914824 0) scale(0.996264)"/>
       <use xlink:href="#CMR17-49" transform="translate(243.987254 0) scale(0.996264)"/>
      </g>
     </g>
    </g>
    <g id="ytick_7">
     <g id="line2d_44">
      <g>
       <use xlink:href="#me68319a96e" x="97.369354" y="327.40027" style="stroke: #000000; stroke-width: 0.5"/>
      </g>
     </g>
     <g id="line2d_45">
      <g>
       <use xlink:href="#mb01433688a" x="435.049354" y="327.40027" style="stroke: #000000; stroke-width: 0.5"/>
      </g>
     </g>
     <g id="text_14">
      <!-- Hom-HD -->
      <g transform="translate(14.4 335.010616) scale(0.22 -0.22)">
       <use xlink:href="#CMR17-48" transform="scale(0.996264)"/>
       <use xlink:href="#CMR17-6f" transform="translate(69.07243 0) scale(0.996264)"/>
       <use xlink:href="#CMR17-6d" transform="translate(114.762907 0) scale(0.996264)"/>
       <use xlink:href="#CMR17-2d" transform="translate(191.682497 0) scale(0.996264)"/>
       <use xlink:href="#CMR17-48" transform="translate(221.758463 0) scale(0.996264)"/>
       <use xlink:href="#CMR17-44" transform="translate(290.830893 0) scale(0.996264)"/>
      </g>
     </g>
    </g>
    <g id="ytick_8">
     <g id="line2d_46">
      <g>
       <use xlink:href="#me68319a96e" x="97.369354" y="284.879422" style="stroke: #000000; stroke-width: 0.5"/>
      </g>
     </g>
     <g id="line2d_47">
      <g>
       <use xlink:href="#mb01433688a" x="435.049354" y="284.879422" style="stroke: #000000; stroke-width: 0.5"/>
      </g>
     </g>
     <g id="text_15">
      <!-- Het-HD -->
      <g transform="translate(24.705608 292.489769) scale(0.22 -0.22)">
       <use xlink:href="#CMR17-48" transform="scale(0.996264)"/>
       <use xlink:href="#CMR17-65" transform="translate(69.07243 0) scale(0.996264)"/>
       <use xlink:href="#CMR17-74" transform="translate(109.55809 0) scale(0.996264)"/>
       <use xlink:href="#CMR17-2d" transform="translate(144.838858 0) scale(0.996264)"/>
       <use xlink:href="#CMR17-48" transform="translate(174.914824 0) scale(0.996264)"/>
       <use xlink:href="#CMR17-44" transform="translate(243.987254 0) scale(0.996264)"/>
      </g>
     </g>
    </g>
   </g>
   <g id="patch_18">
    <path d="M 423.630224 429.450304 
L 97.369354 429.450304 
L 97.369354 395.433626 
L 423.630224 395.433626 
z
" clip-path="url(#paca9afa5fa)" style="fill: #b1ceb5; opacity: 0.9; stroke: #000000; stroke-width: 1.5; stroke-linejoin: miter"/>
   </g>
   <g id="patch_19">
    <path d="M 423.630224 386.929456 
L 97.369354 386.929456 
L 97.369354 352.912778 
L 423.630224 352.912778 
z
" clip-path="url(#paca9afa5fa)" style="fill: #5494a1; opacity: 0.9; stroke: #000000; stroke-width: 1.5; stroke-linejoin: miter"/>
   </g>
   <g id="patch_20">
    <path d="M 423.630224 344.408609 
L 149.724882 344.408609 
L 149.724882 310.391931 
L 423.630224 310.391931 
z
" clip-path="url(#paca9afa5fa)" style="fill: #7db2ac; opacity: 0.9; stroke: #000000; stroke-width: 1.5; stroke-linejoin: miter"/>
   </g>
   <g id="patch_21">
    <path d="M 423.630224 301.887761 
L 423.630224 301.887761 
L 423.630224 267.871083 
L 423.630224 267.871083 
z
" clip-path="url(#paca9afa5fa)" style="opacity: 0.9; stroke: #000000; stroke-width: 1.5; stroke-linejoin: miter"/>
   </g>
   <g id="patch_22">
    <path d="M 97.369354 437.529265 
L 97.369354 259.792122 
" style="fill: none; stroke: #000000; stroke-width: 1.6; stroke-linejoin: miter; stroke-linecap: square"/>
   </g>
   <g id="patch_23">
    <path d="M 435.049354 437.529265 
L 435.049354 259.792122 
" style="fill: none; stroke: #000000; stroke-width: 1.6; stroke-linejoin: miter; stroke-linecap: square"/>
   </g>
   <g id="patch_24">
    <path d="M 97.369354 437.529265 
L 435.049354 437.529265 
" style="fill: none; stroke: #000000; stroke-width: 1.6; stroke-linejoin: miter; stroke-linecap: square"/>
   </g>
   <g id="patch_25">
    <path d="M 97.369354 259.792122 
L 435.049354 259.792122 
" style="fill: none; stroke: #000000; stroke-width: 1.6; stroke-linejoin: miter; stroke-linecap: square"/>
   </g>
   <g id="line2d_48">
    <path d="M 423.630224 437.529265 
L 423.630224 259.792122 
" clip-path="url(#paca9afa5fa)" style="fill: none; stroke: #000000; stroke-width: 1.8; stroke-linecap: square"/>
   </g>
   <g id="text_16">
    <!-- Rituximab -->
    <g transform="translate(219.40353 251.792122) scale(0.22 -0.22)">
     <defs>
      <path id="CMR17-52" d="M 2509 2146 
C 3117 2268 3629 2676 3629 3186 
C 3629 3785 2950 4326 2054 4326 
L 333 4326 
L 333 4160 
C 774 4160 845 4160 845 3873 
L 845 415 
C 845 128 774 128 333 128 
L 333 -26 
C 518 -26 851 -26 1050 -26 
C 1248 -26 1581 -26 1766 -26 
L 1766 128 
C 1325 128 1254 128 1254 417 
L 1254 2112 
L 2003 2112 
C 2368 2112 2573 1964 2662 1881 
C 2918 1632 2918 1459 2918 1024 
C 2918 595 2918 377 3110 160 
C 3354 -102 3680 -128 3821 -128 
C 4294 -128 4365 396 4365 503 
C 4365 540 4365 585 4307 585 
C 4256 585 4250 547 4250 522 
C 4218 112 4032 -26 3834 -26 
C 3482 -26 3443 375 3405 764 
C 3386 898 3373 993 3360 1133 
C 3322 1452 3270 1917 2509 2146 
z
M 1984 2214 
L 1254 2214 
L 1254 3913 
C 1254 4129 1267 4160 1523 4160 
L 1990 4160 
C 2522 4160 3142 3977 3142 3190 
C 3142 2372 2464 2214 1984 2214 
z
" transform="scale(0.015625)"/>
      <path id="CMR17-69" d="M 992 3909 
C 992 4049 877 4170 730 4170 
C 589 4170 467 4056 467 3909 
C 467 3769 582 3648 730 3648 
C 870 3648 992 3763 992 3909 
z
M 243 2706 
L 243 2541 
C 602 2541 653 2502 653 2197 
L 653 427 
C 653 184 627 153 218 153 
L 218 -13 
C 371 0 646 0 806 0 
C 960 0 1222 0 1370 -13 
L 1370 153 
C 992 153 979 191 979 420 
L 979 2776 
L 243 2706 
z
" transform="scale(0.015625)"/>
      <path id="CMR17-75" d="M 1882 2693 
L 1882 2528 
C 2259 2528 2317 2489 2317 2186 
L 2317 1032 
C 2317 500 2029 38 1555 38 
C 1030 38 986 348 986 678 
L 986 2763 
L 211 2693 
L 211 2528 
C 467 2528 640 2528 646 2274 
L 646 1058 
C 646 633 646 361 813 183 
C 896 101 1056 -64 1517 -64 
C 2061 -64 2272 377 2323 506 
L 2330 506 
L 2330 -63 
L 3091 -63 
L 3091 128 
C 2714 128 2656 166 2656 473 
L 2656 2763 
L 1882 2693 
z
" transform="scale(0.015625)"/>
      <path id="CMR17-78" d="M 1664 1477 
C 1856 1726 2074 2006 2253 2216 
C 2464 2458 2707 2560 2989 2560 
L 2989 2726 
C 2880 2726 2656 2726 2541 2726 
C 2368 2726 2170 2726 2022 2732 
L 2022 2566 
C 2112 2553 2163 2489 2163 2400 
C 2163 2285 2099 2215 2067 2171 
L 1594 1573 
L 1030 2306 
C 973 2376 973 2388 973 2420 
C 973 2497 1037 2560 1146 2560 
L 1146 2732 
C 992 2726 717 2726 557 2726 
C 384 2726 179 2726 38 2732 
L 38 2560 
C 384 2560 461 2534 614 2343 
L 1350 1395 
C 1363 1382 1395 1344 1395 1325 
C 1395 1299 838 619 768 530 
C 480 185 179 160 6 160 
L 6 0 
C 115 0 339 0 454 0 
C 582 0 864 0 979 -6 
L 979 160 
C 941 166 838 179 838 325 
C 838 440 890 510 947 586 
L 1478 1236 
L 2035 512 
C 2086 442 2163 346 2163 301 
C 2163 211 2086 160 1984 160 
L 1984 -6 
C 2138 0 2413 0 2573 0 
C 2746 0 2950 0 3091 -6 
L 3091 160 
C 2771 160 2675 172 2522 370 
L 1664 1477 
z
" transform="scale(0.015625)"/>
      <path id="CMR17-62" d="M 960 4396 
L 198 4326 
L 198 4160 
C 576 4160 634 4122 634 3817 
L 634 -13 
L 749 -13 
L 934 441 
C 1120 141 1395 -64 1766 -64 
C 2406 -64 3053 500 3053 1370 
C 3053 2188 2477 2790 1830 2790 
C 1434 2790 1152 2579 960 2330 
L 960 4396 
z
M 973 2004 
C 973 2118 973 2138 1062 2272 
C 1312 2657 1670 2688 1792 2688 
C 1984 2688 2643 2585 2643 1376 
C 2643 108 1888 38 1734 38 
C 1536 38 1248 114 1043 486 
C 973 608 973 621 973 735 
L 973 2004 
z
" transform="scale(0.015625)"/>
     </defs>
     <use xlink:href="#CMR17-52" transform="scale(0.996264)"/>
     <use xlink:href="#CMR17-69" transform="translate(67.791102 0) scale(0.996264)"/>
     <use xlink:href="#CMR17-74" transform="translate(92.66216 0) scale(0.996264)"/>
     <use xlink:href="#CMR17-75" transform="translate(127.942928 0) scale(0.996264)"/>
     <use xlink:href="#CMR17-78" transform="translate(178.838298 0) scale(0.996264)"/>
     <use xlink:href="#CMR17-69" transform="translate(227.131214 0) scale(0.996264)"/>
     <use xlink:href="#CMR17-6d" transform="translate(252.002272 0) scale(0.996264)"/>
     <use xlink:href="#CMR17-61" transform="translate(328.921862 0) scale(0.996264)"/>
     <use xlink:href="#CMR17-62" transform="translate(374.612339 0) scale(0.996264)"/>
    </g>
   </g>
   <g id="text_17">
    <!-- // -->
    <g transform="translate(103.24205 418.418789) scale(0.24 -0.24)">
     <use xlink:href="#CMR17-2f" transform="scale(0.996264)"/>
     <use xlink:href="#CMR17-2f" transform="translate(45.690477 0) scale(0.996264)"/>
    </g>
   </g>
   <g id="text_18">
    <!-- -81.51 -->
    <g transform="translate(117.597528 417.920718) scale(0.22 -0.22)">
     <defs>
      <path id="CMR17-38" d="M 1741 2264 
C 2144 2467 2554 2773 2554 3263 
C 2554 3841 1990 4179 1472 4179 
C 890 4179 378 3759 378 3180 
C 378 3021 416 2747 666 2505 
C 730 2442 998 2251 1171 2130 
C 883 1983 211 1634 211 934 
C 211 279 838 -128 1459 -128 
C 2144 -128 2720 362 2720 1010 
C 2720 1590 2330 1857 2074 2029 
L 1741 2264 
z
M 902 2822 
C 851 2854 595 3051 595 3351 
C 595 3739 998 4032 1459 4032 
C 1965 4032 2336 3676 2336 3262 
C 2336 2669 1670 2331 1638 2331 
C 1632 2331 1626 2331 1574 2370 
L 902 2822 
z
M 2080 1519 
C 2176 1449 2483 1240 2483 851 
C 2483 381 2010 25 1472 25 
C 890 25 448 438 448 940 
C 448 1443 838 1862 1280 2060 
L 2080 1519 
z
" transform="scale(0.015625)"/>
     </defs>
     <use xlink:href="#CMR17-2d" transform="scale(0.996264)"/>
     <use xlink:href="#CMR17-38" transform="translate(30.075966 0) scale(0.996264)"/>
     <use xlink:href="#CMR17-31" transform="translate(75.766443 0) scale(0.996264)"/>
     <use xlink:href="#CMR17-2e" transform="translate(121.456921 0) scale(0.996264)"/>
     <use xlink:href="#CMR17-35" transform="translate(146.327979 0) scale(0.996264)"/>
     <use xlink:href="#CMR17-31" transform="translate(192.018456 0) scale(0.996264)"/>
    </g>
   </g>
   <g id="text_19">
    <!-- // -->
    <g transform="translate(103.24205 375.897941) scale(0.24 -0.24)">
     <use xlink:href="#CMR17-2f" transform="scale(0.996264)"/>
     <use xlink:href="#CMR17-2f" transform="translate(45.690477 0) scale(0.996264)"/>
    </g>
   </g>
   <g id="text_20">
    <!-- -26.67 -->
    <g transform="translate(117.597528 375.39987) scale(0.22 -0.22)">
     <defs>
      <path id="CMR17-32" d="M 2669 989 
L 2554 989 
C 2490 536 2438 459 2413 420 
C 2381 369 1920 369 1830 369 
L 602 369 
C 832 619 1280 1072 1824 1597 
C 2214 1967 2669 2402 2669 3035 
C 2669 3790 2067 4224 1395 4224 
C 691 4224 262 3604 262 3030 
C 262 2780 448 2748 525 2748 
C 589 2748 781 2787 781 3010 
C 781 3207 614 3264 525 3264 
C 486 3264 448 3258 422 3245 
C 544 3790 915 4058 1306 4058 
C 1862 4058 2227 3617 2227 3035 
C 2227 2479 1901 2000 1536 1584 
L 262 146 
L 262 0 
L 2515 0 
L 2669 989 
z
" transform="scale(0.015625)"/>
     </defs>
     <use xlink:href="#CMR17-2d" transform="scale(0.996264)"/>
     <use xlink:href="#CMR17-32" transform="translate(30.075966 0) scale(0.996264)"/>
     <use xlink:href="#CMR17-36" transform="translate(75.766443 0) scale(0.996264)"/>
     <use xlink:href="#CMR17-2e" transform="translate(121.456921 0) scale(0.996264)"/>
     <use xlink:href="#CMR17-36" transform="translate(146.327979 0) scale(0.996264)"/>
     <use xlink:href="#CMR17-37" transform="translate(192.018456 0) scale(0.996264)"/>
    </g>
   </g>
   <g id="text_21">
    <!-- -8.40 -->
    <g transform="translate(153.640012 332.879022) scale(0.22 -0.22)">
     <use xlink:href="#CMR17-2d" transform="scale(0.996264)"/>
     <use xlink:href="#CMR17-38" transform="translate(30.075966 0) scale(0.996264)"/>
     <use xlink:href="#CMR17-2e" transform="translate(75.766443 0) scale(0.996264)"/>
     <use xlink:href="#CMR17-34" transform="translate(100.637502 0) scale(0.996264)"/>
     <use xlink:href="#CMR17-30" transform="translate(146.327979 0) scale(0.996264)"/>
    </g>
   </g>
   <g id="text_22">
    <!-- 0.00 -->
    <g transform="translate(425.261528 290.358175) scale(0.22 -0.22)">
     <use xlink:href="#CMR17-30" transform="scale(0.996264)"/>
     <use xlink:href="#CMR17-2e" transform="translate(45.690477 0) scale(0.996264)"/>
     <use xlink:href="#CMR17-30" transform="translate(70.561536 0) scale(0.996264)"/>
     <use xlink:href="#CMR17-30" transform="translate(116.252013 0) scale(0.996264)"/>
    </g>
   </g>
  </g>
  <g id="axes_3">
   <g id="patch_26">
    <path d="M 97.369354 659.700693 
L 435.049354 659.700693 
L 435.049354 481.963551 
L 97.369354 481.963551 
L 97.369354 659.700693 
z
" style="fill: none"/>
   </g>
   <g id="patch_27">
    <path d="M 391.004137 659.700693 
L 408.063624 659.700693 
L 408.063624 481.963551 
L 391.004137 481.963551 
z
" clip-path="url(#p37f3725f3a)" style="fill: #fff3b0; opacity: 0.34"/>
   </g>
   <g id="patch_28">
    <path d="M 358.37805 659.700693 
L 391.004137 659.700693 
L 391.004137 481.963551 
L 358.37805 481.963551 
z
" clip-path="url(#p37f3725f3a)" style="fill: #ffd28a; opacity: 0.3"/>
   </g>
   <g id="patch_29">
    <path d="M 97.369354 659.700693 
L 358.37805 659.700693 
L 358.37805 481.963551 
L 97.369354 481.963551 
z
" clip-path="url(#p37f3725f3a)" style="fill: #e76f51; opacity: 0.26"/>
   </g>
   <g id="line2d_49">
    <path d="M 408.063624 659.700693 
L 408.063624 481.963551 
" clip-path="url(#p37f3725f3a)" style="fill: none; stroke-dasharray: 1.2,1.98; stroke-dashoffset: 0; stroke: #000000; stroke-opacity: 0.65; stroke-width: 1.2"/>
   </g>
   <g id="line2d_50">
    <path d="M 391.004137 659.700693 
L 391.004137 481.963551 
" clip-path="url(#p37f3725f3a)" style="fill: none; stroke-dasharray: 1.2,1.98; stroke-dashoffset: 0; stroke: #000000; stroke-opacity: 0.65; stroke-width: 1.2"/>
   </g>
   <g id="line2d_51">
    <path d="M 358.37805 659.700693 
L 358.37805 481.963551 
" clip-path="url(#p37f3725f3a)" style="fill: none; stroke-dasharray: 1.2,1.98; stroke-dashoffset: 0; stroke: #000000; stroke-opacity: 0.65; stroke-width: 1.2"/>
   </g>
   <g id="matplotlib.axis_5">
    <g id="xtick_13">
     <g id="line2d_52">
      <g>
       <use xlink:href="#m091a616750" x="97.369354" y="659.700693" style="stroke: #000000; stroke-width: 0.5"/>
      </g>
     </g>
     <g id="line2d_53">
      <g>
       <use xlink:href="#m63d94b7586" x="97.369354" y="481.963551" style="stroke: #000000; stroke-width: 0.5"/>
      </g>
     </g>
     <g id="text_23">
      <!-- $\mathdefault{−10}$ -->
      <g transform="translate(82.171198 675.653994) scale(0.18 -0.18)">
       <defs>
        <path id="CMSY10-0" d="M 4218 1472 
C 4326 1472 4442 1472 4442 1600 
C 4442 1728 4326 1728 4218 1728 
L 755 1728 
C 646 1728 531 1728 531 1600 
C 531 1472 646 1472 755 1472 
L 4218 1472 
z
" transform="scale(0.015625)"/>
       </defs>
       <use xlink:href="#CMSY10-0" transform="scale(0.996264)"/>
       <use xlink:href="#CMR17-31" transform="translate(77.487468 0) scale(0.996264)"/>
       <use xlink:href="#CMR17-30" transform="translate(123.177945 0) scale(0.996264)"/>
      </g>
     </g>
    </g>
    <g id="xtick_14">
     <g id="line2d_54">
      <g>
       <use xlink:href="#m091a616750" x="162.621528" y="659.700693" style="stroke: #000000; stroke-width: 0.5"/>
      </g>
     </g>
     <g id="line2d_55">
      <g>
       <use xlink:href="#m63d94b7586" x="162.621528" y="481.963551" style="stroke: #000000; stroke-width: 0.5"/>
      </g>
     </g>
     <g id="text_24">
      <!-- $\mathdefault{−8}$ -->
      <g transform="translate(151.535515 675.653994) scale(0.18 -0.18)">
       <use xlink:href="#CMSY10-0" transform="scale(0.996264)"/>
       <use xlink:href="#CMR17-38" transform="translate(77.487468 0) scale(0.996264)"/>
      </g>
     </g>
    </g>
    <g id="xtick_15">
     <g id="line2d_56">
      <g>
       <use xlink:href="#m091a616750" x="227.873702" y="659.700693" style="stroke: #000000; stroke-width: 0.5"/>
      </g>
     </g>
     <g id="line2d_57">
      <g>
       <use xlink:href="#m63d94b7586" x="227.873702" y="481.963551" style="stroke: #000000; stroke-width: 0.5"/>
      </g>
     </g>
     <g id="text_25">
      <!-- $\mathdefault{−6}$ -->
      <g transform="translate(216.787688 675.653994) scale(0.18 -0.18)">
       <use xlink:href="#CMSY10-0" transform="scale(0.996264)"/>
       <use xlink:href="#CMR17-36" transform="translate(77.487468 0) scale(0.996264)"/>
      </g>
     </g>
    </g>
    <g id="xtick_16">
     <g id="line2d_58">
      <g>
       <use xlink:href="#m091a616750" x="293.125876" y="659.700693" style="stroke: #000000; stroke-width: 0.5"/>
      </g>
     </g>
     <g id="line2d_59">
      <g>
       <use xlink:href="#m63d94b7586" x="293.125876" y="481.963551" style="stroke: #000000; stroke-width: 0.5"/>
      </g>
     </g>
     <g id="text_26">
      <!-- $\mathdefault{−4}$ -->
      <g transform="translate(282.039862 675.653994) scale(0.18 -0.18)">
       <use xlink:href="#CMSY10-0" transform="scale(0.996264)"/>
       <use xlink:href="#CMR17-34" transform="translate(77.487468 0) scale(0.996264)"/>
      </g>
     </g>
    </g>
    <g id="xtick_17">
     <g id="line2d_60">
      <g>
       <use xlink:href="#m091a616750" x="358.37805" y="659.700693" style="stroke: #000000; stroke-width: 0.5"/>
      </g>
     </g>
     <g id="line2d_61">
      <g>
       <use xlink:href="#m63d94b7586" x="358.37805" y="481.963551" style="stroke: #000000; stroke-width: 0.5"/>
      </g>
     </g>
     <g id="text_27">
      <!-- $\mathdefault{−2}$ -->
      <g transform="translate(347.292036 675.653994) scale(0.18 -0.18)">
       <use xlink:href="#CMSY10-0" transform="scale(0.996264)"/>
       <use xlink:href="#CMR17-32" transform="translate(77.487468 0) scale(0.996264)"/>
      </g>
     </g>
    </g>
    <g id="xtick_18">
     <g id="line2d_62">
      <g>
       <use xlink:href="#m091a616750" x="423.630224" y="659.700693" style="stroke: #000000; stroke-width: 0.5"/>
      </g>
     </g>
     <g id="line2d_63">
      <g>
       <use xlink:href="#m63d94b7586" x="423.630224" y="481.963551" style="stroke: #000000; stroke-width: 0.5"/>
      </g>
     </g>
     <g id="text_28">
      <!-- $\mathdefault{0}$ -->
      <g transform="translate(419.518081 675.653994) scale(0.18 -0.18)">
       <use xlink:href="#CMR17-30" transform="scale(0.996264)"/>
      </g>
     </g>
    </g>
    <g id="text_29">
     <!-- $\log_{10}\mathrm{BF}(\mathcal{M}/\mathcal{M}_{\mathrm{best}})$ -->
     <g transform="translate(168.522693 701.07481) scale(0.24 -0.24)">
      <defs>
       <path id="CMR17-6c" d="M 979 4396 
L 218 4326 
L 218 4160 
C 595 4160 653 4122 653 3817 
L 653 426 
C 653 184 627 153 218 153 
L 218 -13 
C 371 0 653 0 813 0 
C 979 0 1261 0 1414 -13 
L 1414 153 
C 1005 153 979 178 979 426 
L 979 4396 
z
" transform="scale(0.015625)"/>
       <path id="CMR17-67" d="M 710 1164 
C 832 1068 1043 960 1299 960 
C 1805 960 2240 1357 2240 1888 
C 2240 2054 2189 2310 1997 2509 
C 2176 2692 2438 2752 2586 2752 
C 2611 2752 2650 2752 2682 2734 
C 2656 2728 2598 2703 2598 2605 
C 2598 2527 2656 2471 2739 2471 
C 2835 2471 2886 2533 2886 2614 
C 2886 2731 2790 2854 2586 2854 
C 2330 2854 2106 2738 1926 2580 
C 1734 2753 1504 2816 1299 2816 
C 794 2816 358 2419 358 1888 
C 358 1522 570 1292 634 1228 
C 442 1004 442 743 442 711 
C 442 545 506 302 723 168 
C 390 85 128 -169 128 -486 
C 128 -943 736 -1280 1466 -1280 
C 2170 -1280 2803 -956 2803 -479 
C 2803 384 1856 384 1363 384 
C 1216 384 954 384 922 391 
C 723 423 589 602 589 826 
C 589 883 589 1024 710 1164 
z
M 1299 1068 
C 736 1068 736 1760 736 1889 
C 736 2016 736 2708 1299 2708 
C 1862 2708 1862 2016 1862 1889 
C 1862 1760 1862 1068 1299 1068 
z
M 1466 -1171 
C 826 -1171 384 -835 384 -486 
C 384 -289 493 -105 634 -4 
C 794 104 858 104 1293 104 
C 1818 104 2547 104 2547 -486 
C 2547 -835 2106 -1171 1466 -1171 
z
" transform="scale(0.015625)"/>
       <path id="CMR17-42" d="M 333 4352 
L 333 4186 
C 774 4186 845 4186 845 3900 
L 845 452 
C 845 166 774 166 333 166 
L 333 0 
L 2534 0 
C 3354 0 3885 583 3885 1164 
C 3885 1741 3360 2233 2675 2233 
C 3290 2356 3718 2771 3718 3264 
C 3718 3802 3194 4352 2368 4352 
L 333 4352 
z
M 1248 2304 
L 1248 3937 
C 1248 4155 1261 4186 1517 4186 
L 2336 4186 
C 2970 4186 3251 3674 3251 3277 
C 3251 2791 2861 2304 2170 2304 
L 1248 2304 
z
M 1517 166 
C 1261 166 1248 197 1248 413 
L 1248 2202 
L 2432 2202 
C 3091 2202 3411 1625 3411 1162 
C 3411 699 3046 166 2349 166 
L 1517 166 
z
" transform="scale(0.015625)"/>
       <path id="CMR17-46" d="M 3482 4325 
L 326 4325 
L 326 4160 
C 768 4160 838 4160 838 3874 
L 838 446 
C 838 160 768 160 326 160 
L 326 0 
C 512 0 870 0 1069 0 
C 1331 0 1638 0 1901 0 
L 1901 160 
L 1760 160 
C 1274 160 1261 223 1261 452 
L 1261 2075 
L 1837 2075 
C 2432 2075 2490 1865 2490 1332 
L 2605 1332 
L 2605 2987 
L 2490 2987 
C 2490 2450 2432 2240 1837 2240 
L 1261 2240 
L 1261 3911 
C 1261 4128 1274 4160 1530 4160 
L 2355 4160 
C 3322 4160 3430 3765 3520 2916 
L 3635 2916 
L 3482 4325 
z
" transform="scale(0.015625)"/>
       <path id="CMR17-28" d="M 1958 -1561 
C 1958 -1555 1958 -1542 1939 -1523 
C 1645 -1224 858 -407 858 1581 
C 858 3569 1632 4379 1946 4697 
C 1946 4704 1958 4717 1958 4736 
C 1958 4755 1939 4768 1914 4768 
C 1843 4768 1299 4296 986 3594 
C 666 2887 576 2199 576 1588 
C 576 1128 621 351 1005 -471 
C 1312 -1135 1837 -1600 1914 -1600 
C 1946 -1600 1958 -1587 1958 -1561 
z
" transform="scale(0.015625)"/>
       <path id="CMSY10-4d" d="M 2464 3629 
C 2637 2797 2918 1427 3283 685 
C 3424 409 3494 269 3558 269 
C 3584 269 3597 269 3712 384 
C 4198 849 4531 1219 4979 1730 
L 6381 3357 
C 6291 2814 6061 1378 6061 631 
C 6061 459 6067 293 6086 120 
C 6093 51 6118 -135 6387 -135 
C 6656 -135 7142 147 7142 275 
C 7142 313 7104 320 7085 320 
C 7002 320 6874 263 6803 218 
C 6650 238 6637 340 6624 486 
C 6605 690 6605 882 6605 908 
C 6605 1615 6886 3548 7072 4340 
C 7078 4385 7085 4397 7085 4448 
C 7085 4473 7078 4544 7034 4544 
C 7008 4544 7002 4537 6880 4396 
C 6278 3670 4410 1436 3776 900 
C 3616 1237 3501 1480 3277 2372 
C 3091 3092 2982 3620 2874 4238 
C 2854 4327 2822 4499 2822 4512 
C 2803 4544 2771 4544 2752 4544 
C 2637 4544 2368 4404 2349 4270 
C 2272 3735 2144 2893 1696 1677 
C 1184 320 1043 320 922 320 
C 838 320 602 371 461 498 
C 429 530 416 530 403 530 
C 314 530 173 240 173 60 
C 173 2 173 -76 378 -184 
C 538 -269 691 -269 723 -269 
C 1120 -269 1498 646 1626 973 
C 1926 1696 2285 2707 2464 3629 
z
" transform="scale(0.015625)"/>
       <path id="CMMI12-3d" d="M 2746 4562 
C 2746 4569 2784 4666 2784 4678 
C 2784 4755 2720 4800 2669 4800 
C 2637 4800 2579 4800 2528 4659 
L 384 -1363 
C 384 -1370 346 -1465 346 -1478 
C 346 -1555 410 -1600 461 -1600 
C 499 -1600 557 -1593 602 -1459 
L 2746 4562 
z
" transform="scale(0.015625)"/>
       <path id="CMR17-73" d="M 1978 2697 
C 1978 2813 1971 2819 1933 2819 
C 1907 2819 1901 2813 1824 2717 
C 1805 2691 1747 2626 1728 2601 
C 1523 2819 1235 2819 1126 2819 
C 416 2819 160 2447 160 2076 
C 160 1498 813 1365 998 1325 
C 1402 1243 1542 1217 1677 1101 
C 1760 1025 1901 884 1901 654 
C 1901 384 1747 38 1158 38 
C 602 38 403 460 288 1021 
C 269 1110 269 1117 218 1117 
C 166 1117 160 1110 160 983 
L 160 63 
C 160 -51 166 -58 205 -58 
C 237 -58 243 -51 275 0 
C 314 57 410 211 448 276 
C 576 103 800 -64 1158 -64 
C 1792 -64 2131 283 2131 784 
C 2131 1112 1958 1285 1875 1362 
C 1683 1561 1459 1606 1190 1657 
C 838 1735 390 1825 390 2217 
C 390 2383 480 2737 1126 2737 
C 1811 2737 1850 2094 1862 1888 
C 1869 1856 1901 1849 1920 1849 
C 1978 1849 1978 1869 1978 1978 
L 1978 2697 
z
" transform="scale(0.015625)"/>
       <path id="CMR17-29" d="M 1683 1581 
C 1683 2040 1638 2817 1254 3639 
C 947 4303 422 4768 346 4768 
C 326 4768 301 4761 301 4729 
C 301 4717 307 4710 314 4697 
C 621 4378 1402 3568 1402 1584 
C 1402 -407 627 -1217 314 -1537 
C 307 -1549 301 -1556 301 -1568 
C 301 -1600 326 -1600 346 -1600 
C 416 -1600 960 -1128 1274 -426 
C 1594 281 1683 969 1683 1581 
z
" transform="scale(0.015625)"/>
      </defs>
      <use xlink:href="#CMR17-6c" transform="scale(0.996264)"/>
      <use xlink:href="#CMR17-6f" transform="translate(24.871058 0) scale(0.996264)"/>
      <use xlink:href="#CMR17-67" transform="translate(70.561536 0) scale(0.996264)"/>
      <use xlink:href="#CMR17-31" transform="translate(117.553179 -22.865092) scale(0.697382)"/>
      <use xlink:href="#CMR17-30" transform="translate(149.536361 -22.865092) scale(0.697382)"/>
      <use xlink:href="#CMR17-42" transform="translate(198.62208 0) scale(0.996264)"/>
      <use xlink:href="#CMR17-46" transform="translate(263.810834 0) scale(0.996264)"/>
      <use xlink:href="#CMR17-28" transform="translate(323.794681 0) scale(0.996264)"/>
      <use xlink:href="#CMSY10-4d" transform="translate(359.075449 0) scale(0.996264)"/>
      <use xlink:href="#CMMI12-3d" transform="translate(478.71679 0) scale(0.996264)"/>
      <use xlink:href="#CMSY10-4d" transform="translate(527.491709 0) scale(0.996264)"/>
      <use xlink:href="#CMR17-62" transform="translate(647.13305 -14.943915) scale(0.697382)"/>
      <use xlink:href="#CMR17-65" transform="translate(684.581364 -14.943915) scale(0.697382)"/>
      <use xlink:href="#CMR17-73" transform="translate(712.921196 -14.943915) scale(0.697382)"/>
      <use xlink:href="#CMR17-74" transform="translate(737.982018 -14.943915) scale(0.697382)"/>
      <use xlink:href="#CMR17-29" transform="translate(763.176571 0) scale(0.996264)"/>
     </g>
    </g>
   </g>
   <g id="matplotlib.axis_6">
    <g id="ytick_9">
     <g id="line2d_64">
      <g>
       <use xlink:href="#me68319a96e" x="97.369354" y="634.613393" style="stroke: #000000; stroke-width: 0.5"/>
      </g>
     </g>
     <g id="line2d_65">
      <g>
       <use xlink:href="#mb01433688a" x="435.049354" y="634.613393" style="stroke: #000000; stroke-width: 0.5"/>
      </g>
     </g>
     <g id="text_30">
      <!-- Hom-HI -->
      <g transform="translate(22.706132 642.22374) scale(0.22 -0.22)">
       <use xlink:href="#CMR17-48" transform="scale(0.996264)"/>
       <use xlink:href="#CMR17-6f" transform="translate(69.07243 0) scale(0.996264)"/>
       <use xlink:href="#CMR17-6d" transform="translate(114.762907 0) scale(0.996264)"/>
       <use xlink:href="#CMR17-2d" transform="translate(191.682497 0) scale(0.996264)"/>
       <use xlink:href="#CMR17-48" transform="translate(221.758463 0) scale(0.996264)"/>
       <use xlink:href="#CMR17-49" transform="translate(290.830893 0) scale(0.996264)"/>
      </g>
     </g>
    </g>
    <g id="ytick_10">
     <g id="line2d_66">
      <g>
       <use xlink:href="#me68319a96e" x="97.369354" y="592.092546" style="stroke: #000000; stroke-width: 0.5"/>
      </g>
     </g>
     <g id="line2d_67">
      <g>
       <use xlink:href="#mb01433688a" x="435.049354" y="592.092546" style="stroke: #000000; stroke-width: 0.5"/>
      </g>
     </g>
     <g id="text_31">
      <!-- Het-HI -->
      <g transform="translate(33.01174 599.702892) scale(0.22 -0.22)">
       <use xlink:href="#CMR17-48" transform="scale(0.996264)"/>
       <use xlink:href="#CMR17-65" transform="translate(69.07243 0) scale(0.996264)"/>
       <use xlink:href="#CMR17-74" transform="translate(109.55809 0) scale(0.996264)"/>
       <use xlink:href="#CMR17-2d" transform="translate(144.838858 0) scale(0.996264)"/>
       <use xlink:href="#CMR17-48" transform="translate(174.914824 0) scale(0.996264)"/>
       <use xlink:href="#CMR17-49" transform="translate(243.987254 0) scale(0.996264)"/>
      </g>
     </g>
    </g>
    <g id="ytick_11">
     <g id="line2d_68">
      <g>
       <use xlink:href="#me68319a96e" x="97.369354" y="549.571698" style="stroke: #000000; stroke-width: 0.5"/>
      </g>
     </g>
     <g id="line2d_69">
      <g>
       <use xlink:href="#mb01433688a" x="435.049354" y="549.571698" style="stroke: #000000; stroke-width: 0.5"/>
      </g>
     </g>
     <g id="text_32">
      <!-- Hom-HD -->
      <g transform="translate(14.4 557.182045) scale(0.22 -0.22)">
       <use xlink:href="#CMR17-48" transform="scale(0.996264)"/>
       <use xlink:href="#CMR17-6f" transform="translate(69.07243 0) scale(0.996264)"/>
       <use xlink:href="#CMR17-6d" transform="translate(114.762907 0) scale(0.996264)"/>
       <use xlink:href="#CMR17-2d" transform="translate(191.682497 0) scale(0.996264)"/>
       <use xlink:href="#CMR17-48" transform="translate(221.758463 0) scale(0.996264)"/>
       <use xlink:href="#CMR17-44" transform="translate(290.830893 0) scale(0.996264)"/>
      </g>
     </g>
    </g>
    <g id="ytick_12">
     <g id="line2d_70">
      <g>
       <use xlink:href="#me68319a96e" x="97.369354" y="507.050851" style="stroke: #000000; stroke-width: 0.5"/>
      </g>
     </g>
     <g id="line2d_71">
      <g>
       <use xlink:href="#mb01433688a" x="435.049354" y="507.050851" style="stroke: #000000; stroke-width: 0.5"/>
      </g>
     </g>
     <g id="text_33">
      <!-- Het-HD -->
      <g transform="translate(24.705608 514.661197) scale(0.22 -0.22)">
       <use xlink:href="#CMR17-48" transform="scale(0.996264)"/>
       <use xlink:href="#CMR17-65" transform="translate(69.07243 0) scale(0.996264)"/>
       <use xlink:href="#CMR17-74" transform="translate(109.55809 0) scale(0.996264)"/>
       <use xlink:href="#CMR17-2d" transform="translate(144.838858 0) scale(0.996264)"/>
       <use xlink:href="#CMR17-48" transform="translate(174.914824 0) scale(0.996264)"/>
       <use xlink:href="#CMR17-44" transform="translate(243.987254 0) scale(0.996264)"/>
      </g>
     </g>
    </g>
   </g>
   <g id="patch_30">
    <path d="M 423.630224 651.621732 
L 97.369354 651.621732 
L 97.369354 617.605054 
L 423.630224 617.605054 
z
" clip-path="url(#p37f3725f3a)" style="fill: #b1ceb5; opacity: 0.9; stroke: #000000; stroke-width: 1.5; stroke-linejoin: miter"/>
   </g>
   <g id="patch_31">
    <path d="M 423.630224 609.100885 
L 97.369354 609.100885 
L 97.369354 575.084207 
L 423.630224 575.084207 
z
" clip-path="url(#p37f3725f3a)" style="fill: #5494a1; opacity: 0.9; stroke: #000000; stroke-width: 1.5; stroke-linejoin: miter"/>
   </g>
   <g id="patch_32">
    <path d="M 423.630224 566.580037 
L 206.169112 566.580037 
L 206.169112 532.563359 
L 423.630224 532.563359 
z
" clip-path="url(#p37f3725f3a)" style="fill: #7db2ac; opacity: 0.9; stroke: #000000; stroke-width: 1.5; stroke-linejoin: miter"/>
   </g>
   <g id="patch_33">
    <path d="M 423.630224 524.05919 
L 423.630224 524.05919 
L 423.630224 490.042512 
L 423.630224 490.042512 
z
" clip-path="url(#p37f3725f3a)" style="opacity: 0.9; stroke: #000000; stroke-width: 1.5; stroke-linejoin: miter"/>
   </g>
   <g id="patch_34">
    <path d="M 97.369354 659.700693 
L 97.369354 481.963551 
" style="fill: none; stroke: #000000; stroke-width: 1.6; stroke-linejoin: miter; stroke-linecap: square"/>
   </g>
   <g id="patch_35">
    <path d="M 435.049354 659.700693 
L 435.049354 481.963551 
" style="fill: none; stroke: #000000; stroke-width: 1.6; stroke-linejoin: miter; stroke-linecap: square"/>
   </g>
   <g id="patch_36">
    <path d="M 97.369354 659.700693 
L 435.049354 659.700693 
" style="fill: none; stroke: #000000; stroke-width: 1.6; stroke-linejoin: miter; stroke-linecap: square"/>
   </g>
   <g id="patch_37">
    <path d="M 97.369354 481.963551 
L 435.049354 481.963551 
" style="fill: none; stroke: #000000; stroke-width: 1.6; stroke-linejoin: miter; stroke-linecap: square"/>
   </g>
   <g id="line2d_72">
    <path d="M 423.630224 659.700693 
L 423.630224 481.963551 
" clip-path="url(#p37f3725f3a)" style="fill: none; stroke: #000000; stroke-width: 1.8; stroke-linecap: square"/>
   </g>
   <g id="text_34">
    <!-- Bispecific Ab -->
    <g transform="translate(208.407359 473.963551) scale(0.22 -0.22)">
     <defs>
      <path id="CMR17-70" d="M 1408 -1063 
C 998 -1063 973 -1037 973 -789 
L 973 402 
C 1158 134 1427 -38 1766 -38 
C 2406 -38 3053 523 3053 1388 
C 3053 2191 2496 2802 1837 2802 
C 1453 2802 1139 2592 960 2338 
L 960 2802 
L 198 2732 
L 198 2567 
C 576 2567 634 2528 634 2223 
L 634 -789 
C 634 -1031 608 -1063 198 -1063 
L 198 -1228 
C 352 -1216 634 -1216 800 -1216 
C 966 -1216 1254 -1216 1408 -1228 
L 1408 -1063 
z
M 973 2012 
C 973 2102 973 2235 1222 2471 
C 1254 2497 1472 2688 1792 2688 
C 2259 2688 2643 2108 2643 1382 
C 2643 656 2234 64 1728 64 
C 1498 64 1248 172 1056 472 
C 973 612 973 650 973 752 
L 973 2012 
z
" transform="scale(0.015625)"/>
      <path id="CMR17-63" d="M 2234 2240 
C 2112 2240 1933 2240 1933 2017 
C 1933 1838 2080 1787 2163 1787 
C 2208 1787 2394 1807 2394 2024 
C 2394 2467 1958 2803 1466 2803 
C 787 2803 211 2178 211 1363 
C 211 516 813 -64 1466 -64 
C 2259 -64 2458 677 2458 748 
C 2458 774 2451 793 2406 793 
C 2362 793 2355 787 2330 703 
C 2163 180 1798 51 1523 51 
C 1114 51 621 427 621 1369 
C 621 2338 1094 2688 1472 2688 
C 1722 2688 2093 2573 2234 2240 
z
" transform="scale(0.015625)"/>
      <path id="CMR17-c" d="M 2554 2764 
C 2400 2764 1926 2764 1805 2739 
C 1766 2725 1754 2725 1677 2725 
L 947 2725 
L 947 3469 
C 947 4073 1434 4352 1818 4352 
C 1939 4352 2214 4320 2355 4101 
C 2291 4101 2086 4101 2086 3878 
C 2086 3725 2189 3648 2317 3648 
C 2432 3648 2547 3712 2547 3885 
C 2547 4205 2240 4454 1843 4454 
C 1338 4454 634 4168 634 3469 
L 634 2725 
L 122 2725 
L 122 2560 
L 634 2560 
L 634 427 
C 634 184 608 153 198 153 
L 198 -13 
C 352 0 634 0 794 0 
C 960 0 1242 0 1395 -13 
L 1395 153 
C 986 153 960 178 960 427 
L 960 2560 
L 1901 2560 
C 2176 2560 2227 2502 2227 2222 
L 2227 427 
C 2227 184 2202 153 1792 153 
L 1792 -13 
C 1946 0 2227 0 2387 0 
C 2554 0 2835 0 2989 -13 
L 2989 153 
C 2579 153 2554 178 2554 427 
L 2554 2764 
z
" transform="scale(0.015625)"/>
      <path id="CMR17-41" d="M 2323 4378 
C 2291 4461 2278 4480 2214 4480 
C 2150 4480 2138 4461 2106 4378 
L 749 566 
C 627 223 371 153 147 153 
L 147 -13 
C 262 0 518 0 640 0 
C 800 0 1056 0 1210 -13 
L 1210 153 
C 909 153 864 361 864 439 
C 864 497 877 530 890 569 
L 1229 1536 
L 2906 1536 
L 3290 442 
C 3322 365 3322 352 3322 327 
C 3322 153 3046 153 2925 153 
L 2925 0 
C 3110 0 3443 0 3642 0 
C 3808 0 4128 0 4282 -13 
L 4282 153 
C 3942 153 3827 153 3744 387 
L 2323 4378 
z
M 2067 3893 
L 2848 1702 
L 1286 1702 
L 2067 3893 
z
" transform="scale(0.015625)"/>
     </defs>
     <use xlink:href="#CMR17-42" transform="scale(0.996264)"/>
     <use xlink:href="#CMR17-69" transform="translate(65.188754 0) scale(0.996264)"/>
     <use xlink:href="#CMR17-73" transform="translate(90.059813 0) scale(0.996264)"/>
     <use xlink:href="#CMR17-70" transform="translate(125.861151 0) scale(0.996264)"/>
     <use xlink:href="#CMR17-65" transform="translate(179.358959 0) scale(0.996264)"/>
     <use xlink:href="#CMR17-63" transform="translate(219.84462 0) scale(0.996264)"/>
     <use xlink:href="#CMR17-69" transform="translate(260.33028 0) scale(0.996264)"/>
     <use xlink:href="#CMR17-c" transform="translate(285.201338 0) scale(0.996264)"/>
     <use xlink:href="#CMR17-63" transform="translate(334.943562 0) scale(0.996264)"/>
     <use xlink:href="#CMR17-41" transform="translate(405.505189 0) scale(0.996264)"/>
     <use xlink:href="#CMR17-62" transform="translate(474.577618 0) scale(0.996264)"/>
    </g>
   </g>
   <g id="text_35">
    <!-- // -->
    <g transform="translate(103.24205 640.590217) scale(0.24 -0.24)">
     <use xlink:href="#CMR17-2f" transform="scale(0.996264)"/>
     <use xlink:href="#CMR17-2f" transform="translate(45.690477 0) scale(0.996264)"/>
    </g>
   </g>
   <g id="text_36">
    <!-- -90.30 -->
    <g transform="translate(117.597528 640.092146) scale(0.22 -0.22)">
     <use xlink:href="#CMR17-2d" transform="scale(0.996264)"/>
     <use xlink:href="#CMR17-39" transform="translate(30.075966 0) scale(0.996264)"/>
     <use xlink:href="#CMR17-30" transform="translate(75.766443 0) scale(0.996264)"/>
     <use xlink:href="#CMR17-2e" transform="translate(121.456921 0) scale(0.996264)"/>
     <use xlink:href="#CMR17-33" transform="translate(146.327979 0) scale(0.996264)"/>
     <use xlink:href="#CMR17-30" transform="translate(192.018456 0) scale(0.996264)"/>
    </g>
   </g>
   <g id="text_37">
    <!-- // -->
    <g transform="translate(103.24205 598.06937) scale(0.24 -0.24)">
     <use xlink:href="#CMR17-2f" transform="scale(0.996264)"/>
     <use xlink:href="#CMR17-2f" transform="translate(45.690477 0) scale(0.996264)"/>
    </g>
   </g>
   <g id="text_38">
    <!-- -38.71 -->
    <g transform="translate(117.597528 597.571299) scale(0.22 -0.22)">
     <use xlink:href="#CMR17-2d" transform="scale(0.996264)"/>
     <use xlink:href="#CMR17-33" transform="translate(30.075966 0) scale(0.996264)"/>
     <use xlink:href="#CMR17-38" transform="translate(75.766443 0) scale(0.996264)"/>
     <use xlink:href="#CMR17-2e" transform="translate(121.456921 0) scale(0.996264)"/>
     <use xlink:href="#CMR17-37" transform="translate(146.327979 0) scale(0.996264)"/>
     <use xlink:href="#CMR17-31" transform="translate(192.018456 0) scale(0.996264)"/>
    </g>
   </g>
   <g id="text_39">
    <!-- -6.67 -->
    <g transform="translate(210.084242 555.050451) scale(0.22 -0.22)">
     <use xlink:href="#CMR17-2d" transform="scale(0.996264)"/>
     <use xlink:href="#CMR17-36" transform="translate(30.075966 0) scale(0.996264)"/>
     <use xlink:href="#CMR17-2e" transform="translate(75.766443 0) scale(0.996264)"/>
     <use xlink:href="#CMR17-36" transform="translate(100.637502 0) scale(0.996264)"/>
     <use xlink:href="#CMR17-37" transform="translate(146.327979 0) scale(0.996264)"/>
    </g>
   </g>
   <g id="text_40">
    <!-- 0.00 -->
    <g transform="translate(425.261528 512.529603) scale(0.22 -0.22)">
     <use xlink:href="#CMR17-30" transform="scale(0.996264)"/>
     <use xlink:href="#CMR17-2e" transform="translate(45.690477 0) scale(0.996264)"/>
     <use xlink:href="#CMR17-30" transform="translate(70.561536 0) scale(0.996264)"/>
     <use xlink:href="#CMR17-30" transform="translate(116.252013 0) scale(0.996264)"/>
    </g>
   </g>
  </g>
 </g>
 <defs>
  <clipPath id="peded866412">
   <rect x="97.369354" y="37.620693" width="337.68" height="177.737143"/>
  </clipPath>
  <clipPath id="paca9afa5fa">
   <rect x="97.369354" y="259.792122" width="337.68" height="177.737143"/>
  </clipPath>
  <clipPath id="p37f3725f3a">
   <rect x="97.369354" y="481.963551" width="337.68" height="177.737143"/>
  </clipPath>
 </defs>
</svg>
